<?xml version="1.0" encoding="UTF-8" standalone="no"?>
<!DOCTYPE svg PUBLIC "-//W3C//DTD SVG 1.1//EN"
 "http://www.w3.org/Graphics/SVG/1.1/DTD/svg11.dtd">
<!-- Generated by graphviz version 2.40.1 (20161225.0304)
 -->
<!-- Title: tracer::AbstractPrinter::setTrace Pages: 1 -->
<svg width="292pt" height="88pt"
 viewBox="0.00 0.00 292.00 88.00" xmlns="http://www.w3.org/2000/svg" xmlns:xlink="http://www.w3.org/1999/xlink">
<g id="graph0" class="graph" transform="scale(1 1) rotate(0) translate(4 84)">
<title>tracer::AbstractPrinter::setTrace</title>
<!-- Node16 -->
<g id="node1" class="node">
<title>Node16</title>
<polygon fill="#bfbfbf" stroke="#000000" points="0,-24.5 0,-54.5 124,-54.5 124,-24.5 0,-24.5"/>
<text text-anchor="start" x="8" y="-42.5" font-family="Helvetica,sans-Serif" font-size="10.00" fill="#000000">tracer::AbstractPrinter</text>
<text text-anchor="middle" x="62" y="-31.5" font-family="Helvetica,sans-Serif" font-size="10.00" fill="#000000">::setTrace</text>
</g>
<!-- Node17 -->
<g id="node2" class="node">
<title>Node17</title>
<g id="a_node2"><a xlink:href="classtracer_1_1_abstract_printer.html#ae3a707d2c7f5f7c072527c878ae1913a" target="_top" xlink:title="Disables colored output (ANSI escape sequences) ">
<polygon fill="none" stroke="#000000" points="160,-49.5 160,-79.5 284,-79.5 284,-49.5 160,-49.5"/>
<text text-anchor="start" x="168" y="-67.5" font-family="Helvetica,sans-Serif" font-size="10.00" fill="#000000">tracer::AbstractPrinter</text>
<text text-anchor="middle" x="222" y="-56.5" font-family="Helvetica,sans-Serif" font-size="10.00" fill="#000000">::disableColor</text>
</a>
</g>
</g>
<!-- Node16&#45;&gt;Node17 -->
<g id="edge1" class="edge">
<title>Node16&#45;&gt;Node17</title>
<path fill="none" stroke="#191970" d="M134.2667,-50.7917C142.8078,-52.1262 151.4676,-53.4793 159.8518,-54.7893"/>
<polygon fill="#191970" stroke="#191970" points="134.7388,-47.323 124.3183,-49.2372 133.6581,-54.2391 134.7388,-47.323"/>
</g>
<!-- Node18 -->
<g id="node3" class="node">
<title>Node18</title>
<g id="a_node3"><a xlink:href="classtracer_1_1_tracer_handler.html#a7d109d22f3dd18bebb8bf2ae9122fe7f" target="_top" xlink:title="Returns a pointer to the TracerHandler object. ">
<polygon fill="none" stroke="#000000" points="162.5,-.5 162.5,-30.5 281.5,-30.5 281.5,-.5 162.5,-.5"/>
<text text-anchor="start" x="170.5" y="-18.5" font-family="Helvetica,sans-Serif" font-size="10.00" fill="#000000">tracer::TracerHandler</text>
<text text-anchor="middle" x="222" y="-7.5" font-family="Helvetica,sans-Serif" font-size="10.00" fill="#000000">::getTracer</text>
</a>
</g>
</g>
<!-- Node16&#45;&gt;Node18 -->
<g id="edge2" class="edge">
<title>Node16&#45;&gt;Node18</title>
<path fill="none" stroke="#191970" d="M134.4217,-28.6367C143.8062,-27.2291 153.331,-25.8003 162.4734,-24.429"/>
<polygon fill="#191970" stroke="#191970" points="133.6885,-25.2075 124.3183,-30.1523 134.7269,-32.13 133.6885,-25.2075"/>
</g>
</g>
</svg>
