<?xml version="1.0" encoding="UTF-8" standalone="no"?>
<!DOCTYPE svg PUBLIC "-//W3C//DTD SVG 1.1//EN"
 "http://www.w3.org/Graphics/SVG/1.1/DTD/svg11.dtd">
<!-- Generated by graphviz version 2.40.1 (20161225.0304)
 -->
<!-- Title: tracer::PrinterContainer::fancy Pages: 1 -->
<svg width="449pt" height="39pt"
 viewBox="0.00 0.00 449.00 39.00" xmlns="http://www.w3.org/2000/svg" xmlns:xlink="http://www.w3.org/1999/xlink">
<g id="graph0" class="graph" transform="scale(1 1) rotate(0) translate(4 35)">
<title>tracer::PrinterContainer::fancy</title>
<!-- Node5 -->
<g id="node1" class="node">
<title>Node5</title>
<polygon fill="#bfbfbf" stroke="#000000" points="0,-.5 0,-30.5 131,-30.5 131,-.5 0,-.5"/>
<text text-anchor="start" x="8" y="-18.5" font-family="Helvetica,sans-Serif" font-size="10.00" fill="#000000">tracer::PrinterContainer</text>
<text text-anchor="middle" x="65.5" y="-7.5" font-family="Helvetica,sans-Serif" font-size="10.00" fill="#000000">::fancy</text>
</g>
<!-- Node6 -->
<g id="node2" class="node">
<title>Node6</title>
<g id="a_node2"><a xlink:href="classtracer_1_1_tracer_handler.html#ac3898a7b4670bfb6ab26a8465b7cd59b" target="_top" xlink:title="Basic setup, sufficient for most use cases. ">
<polygon fill="none" stroke="#000000" points="167,-.5 167,-30.5 286,-30.5 286,-.5 167,-.5"/>
<text text-anchor="start" x="175" y="-18.5" font-family="Helvetica,sans-Serif" font-size="10.00" fill="#000000">tracer::TracerHandler</text>
<text text-anchor="middle" x="226.5" y="-7.5" font-family="Helvetica,sans-Serif" font-size="10.00" fill="#000000">::defaultSetup</text>
</a>
</g>
</g>
<!-- Node5&#45;&gt;Node6 -->
<g id="edge1" class="edge">
<title>Node5&#45;&gt;Node6</title>
<path fill="none" stroke="#191970" d="M141.6975,-15.5C150.1454,-15.5 158.6567,-15.5 166.8578,-15.5"/>
<polygon fill="#191970" stroke="#191970" points="141.4494,-12.0001 131.4494,-15.5 141.4494,-19.0001 141.4494,-12.0001"/>
</g>
<!-- Node7 -->
<g id="node3" class="node">
<title>Node7</title>
<g id="a_node3"><a xlink:href="classtracer_1_1_tracer_handler.html#add3e3ebc8029b9889825d302fc7a3000" target="_top" xlink:title="Sets the new configuration. ">
<polygon fill="none" stroke="#000000" points="322,-.5 322,-30.5 441,-30.5 441,-.5 322,-.5"/>
<text text-anchor="start" x="330" y="-18.5" font-family="Helvetica,sans-Serif" font-size="10.00" fill="#000000">tracer::TracerHandler</text>
<text text-anchor="middle" x="381.5" y="-7.5" font-family="Helvetica,sans-Serif" font-size="10.00" fill="#000000">::setConfig</text>
</a>
</g>
</g>
<!-- Node6&#45;&gt;Node7 -->
<g id="edge2" class="edge">
<title>Node6&#45;&gt;Node7</title>
<path fill="none" stroke="#191970" d="M296.6612,-15.5C305.1217,-15.5 313.6999,-15.5 321.9877,-15.5"/>
<polygon fill="#191970" stroke="#191970" points="296.4271,-12.0001 286.427,-15.5 296.427,-19.0001 296.4271,-12.0001"/>
</g>
</g>
</svg>
